<mxfile host="Electron" modified="2024-04-28T21:40:30.884Z" agent="Mozilla/5.0 (Windows NT 10.0; Win64; x64) AppleWebKit/537.36 (KHTML, like Gecko) draw.io/24.2.5 Chrome/120.0.6099.109 Electron/28.1.0 Safari/537.36" etag="pcKBkCB2p6RDc0kuIa-a" version="24.2.5" type="device">
  <diagram name="Page-1" id="QlbCESwdWhQ616gQmt5w">
    <mxGraphModel dx="1035" dy="626" grid="1" gridSize="10" guides="1" tooltips="1" connect="1" arrows="1" fold="1" page="1" pageScale="1" pageWidth="850" pageHeight="1100" math="0" shadow="0">
      <root>
        <mxCell id="0" />
        <mxCell id="1" parent="0" />
        <mxCell id="heVDlDfBvZri-jR2nNdC-1" value="" style="rounded=0;whiteSpace=wrap;html=1;" vertex="1" parent="1">
          <mxGeometry x="140" y="90" width="270" height="250" as="geometry" />
        </mxCell>
        <mxCell id="heVDlDfBvZri-jR2nNdC-2" value="&lt;font style=&quot;font-size: 15px;&quot;&gt;&lt;b&gt;&lt;font style=&quot;font-size: 15px;&quot;&gt;hatás&lt;/font&gt;&lt;/b&gt;()&lt;/font&gt;" style="text;html=1;align=center;verticalAlign=middle;whiteSpace=wrap;rounded=0;" vertex="1" parent="1">
          <mxGeometry x="245" y="90" width="60" height="30" as="geometry" />
        </mxCell>
        <mxCell id="heVDlDfBvZri-jR2nNdC-3" value="" style="endArrow=none;html=1;rounded=0;entryX=1;entryY=0.12;entryDx=0;entryDy=0;entryPerimeter=0;exitX=-0.005;exitY=0.128;exitDx=0;exitDy=0;exitPerimeter=0;" edge="1" parent="1" source="heVDlDfBvZri-jR2nNdC-1" target="heVDlDfBvZri-jR2nNdC-1">
          <mxGeometry width="50" height="50" relative="1" as="geometry">
            <mxPoint x="140" y="130" as="sourcePoint" />
            <mxPoint x="190" y="80" as="targetPoint" />
          </mxGeometry>
        </mxCell>
        <mxCell id="heVDlDfBvZri-jR2nNdC-4" value="&lt;b&gt;j := 1&lt;/b&gt;" style="text;html=1;align=center;verticalAlign=middle;whiteSpace=wrap;rounded=0;" vertex="1" parent="1">
          <mxGeometry x="160" y="130" width="60" height="30" as="geometry" />
        </mxCell>
        <mxCell id="heVDlDfBvZri-jR2nNdC-5" value="" style="endArrow=none;html=1;rounded=0;entryX=0.998;entryY=0.278;entryDx=0;entryDy=0;entryPerimeter=0;" edge="1" parent="1" target="heVDlDfBvZri-jR2nNdC-1">
          <mxGeometry width="50" height="50" relative="1" as="geometry">
            <mxPoint x="140" y="160" as="sourcePoint" />
            <mxPoint x="190" y="110" as="targetPoint" />
          </mxGeometry>
        </mxCell>
        <mxCell id="heVDlDfBvZri-jR2nNdC-6" value="&lt;b&gt;j ≤ napok&lt;/b&gt;" style="text;html=1;align=center;verticalAlign=middle;whiteSpace=wrap;rounded=0;" vertex="1" parent="1">
          <mxGeometry x="230" y="170" width="70" height="30" as="geometry" />
        </mxCell>
        <mxCell id="heVDlDfBvZri-jR2nNdC-7" value="" style="endArrow=none;html=1;rounded=0;exitX=0.148;exitY=0.44;exitDx=0;exitDy=0;exitPerimeter=0;" edge="1" parent="1" source="heVDlDfBvZri-jR2nNdC-1">
          <mxGeometry width="50" height="50" relative="1" as="geometry">
            <mxPoint x="360" y="250" as="sourcePoint" />
            <mxPoint x="410" y="200" as="targetPoint" />
          </mxGeometry>
        </mxCell>
        <mxCell id="heVDlDfBvZri-jR2nNdC-8" value="" style="endArrow=none;html=1;rounded=0;" edge="1" parent="1">
          <mxGeometry width="50" height="50" relative="1" as="geometry">
            <mxPoint x="180" y="340" as="sourcePoint" />
            <mxPoint x="180" y="200" as="targetPoint" />
          </mxGeometry>
        </mxCell>
        <mxCell id="heVDlDfBvZri-jR2nNdC-9" value="&lt;b&gt;sugárzás := maiSugárzás()&lt;/b&gt;" style="text;html=1;align=center;verticalAlign=middle;whiteSpace=wrap;rounded=0;" vertex="1" parent="1">
          <mxGeometry x="220" y="210" width="170" height="30" as="geometry" />
        </mxCell>
        <mxCell id="heVDlDfBvZri-jR2nNdC-10" value="" style="endArrow=none;html=1;rounded=0;" edge="1" parent="1">
          <mxGeometry width="50" height="50" relative="1" as="geometry">
            <mxPoint x="180" y="240" as="sourcePoint" />
            <mxPoint x="410" y="240" as="targetPoint" />
          </mxGeometry>
        </mxCell>
        <mxCell id="heVDlDfBvZri-jR2nNdC-11" value="" style="endArrow=none;html=1;rounded=0;" edge="1" parent="1">
          <mxGeometry width="50" height="50" relative="1" as="geometry">
            <mxPoint x="180" y="280" as="sourcePoint" />
            <mxPoint x="410" y="280" as="targetPoint" />
          </mxGeometry>
        </mxCell>
        <mxCell id="heVDlDfBvZri-jR2nNdC-12" value="&lt;b&gt;NapiCiklus()&lt;/b&gt;" style="text;html=1;align=center;verticalAlign=middle;whiteSpace=wrap;rounded=0;" vertex="1" parent="1">
          <mxGeometry x="200" y="250" width="170" height="30" as="geometry" />
        </mxCell>
        <mxCell id="heVDlDfBvZri-jR2nNdC-13" value="&lt;b&gt;j := j + 1&lt;/b&gt;" style="text;html=1;align=center;verticalAlign=middle;whiteSpace=wrap;rounded=0;" vertex="1" parent="1">
          <mxGeometry x="200" y="280" width="170" height="30" as="geometry" />
        </mxCell>
        <mxCell id="heVDlDfBvZri-jR2nNdC-14" value="" style="rounded=0;whiteSpace=wrap;html=1;" vertex="1" parent="1">
          <mxGeometry x="451.35" y="120" width="270" height="250" as="geometry" />
        </mxCell>
        <mxCell id="heVDlDfBvZri-jR2nNdC-15" value="&lt;span style=&quot;font-size: 15px;&quot;&gt;&lt;b&gt;NapiCiklus()&lt;/b&gt;&lt;/span&gt;" style="text;html=1;align=center;verticalAlign=middle;whiteSpace=wrap;rounded=0;" vertex="1" parent="1">
          <mxGeometry x="556.35" y="120" width="60" height="30" as="geometry" />
        </mxCell>
        <mxCell id="heVDlDfBvZri-jR2nNdC-16" value="" style="endArrow=none;html=1;rounded=0;entryX=1;entryY=0.12;entryDx=0;entryDy=0;entryPerimeter=0;exitX=-0.005;exitY=0.128;exitDx=0;exitDy=0;exitPerimeter=0;" edge="1" parent="1" source="heVDlDfBvZri-jR2nNdC-14" target="heVDlDfBvZri-jR2nNdC-14">
          <mxGeometry width="50" height="50" relative="1" as="geometry">
            <mxPoint x="451.35" y="160" as="sourcePoint" />
            <mxPoint x="501.35" y="110" as="targetPoint" />
          </mxGeometry>
        </mxCell>
        <mxCell id="heVDlDfBvZri-jR2nNdC-17" value="&lt;b&gt;j := 1&lt;/b&gt;" style="text;html=1;align=center;verticalAlign=middle;whiteSpace=wrap;rounded=0;" vertex="1" parent="1">
          <mxGeometry x="471.35" y="160" width="60" height="30" as="geometry" />
        </mxCell>
        <mxCell id="heVDlDfBvZri-jR2nNdC-18" value="" style="endArrow=none;html=1;rounded=0;entryX=0.998;entryY=0.278;entryDx=0;entryDy=0;entryPerimeter=0;" edge="1" parent="1" target="heVDlDfBvZri-jR2nNdC-14">
          <mxGeometry width="50" height="50" relative="1" as="geometry">
            <mxPoint x="451.35" y="190" as="sourcePoint" />
            <mxPoint x="501.35" y="140" as="targetPoint" />
          </mxGeometry>
        </mxCell>
        <mxCell id="heVDlDfBvZri-jR2nNdC-19" value="&lt;b&gt;j ≤ napok&lt;/b&gt;" style="text;html=1;align=center;verticalAlign=middle;whiteSpace=wrap;rounded=0;" vertex="1" parent="1">
          <mxGeometry x="541.35" y="200" width="70" height="30" as="geometry" />
        </mxCell>
        <mxCell id="heVDlDfBvZri-jR2nNdC-20" value="" style="endArrow=none;html=1;rounded=0;exitX=0.148;exitY=0.44;exitDx=0;exitDy=0;exitPerimeter=0;" edge="1" parent="1" source="heVDlDfBvZri-jR2nNdC-14">
          <mxGeometry width="50" height="50" relative="1" as="geometry">
            <mxPoint x="671.35" y="280" as="sourcePoint" />
            <mxPoint x="721.35" y="230" as="targetPoint" />
          </mxGeometry>
        </mxCell>
        <mxCell id="heVDlDfBvZri-jR2nNdC-21" value="" style="endArrow=none;html=1;rounded=0;" edge="1" parent="1">
          <mxGeometry width="50" height="50" relative="1" as="geometry">
            <mxPoint x="491.35" y="370" as="sourcePoint" />
            <mxPoint x="491.35" y="230" as="targetPoint" />
          </mxGeometry>
        </mxCell>
        <mxCell id="heVDlDfBvZri-jR2nNdC-22" value="&lt;b&gt;sugárzás := maiSugárzás()&lt;/b&gt;" style="text;html=1;align=center;verticalAlign=middle;whiteSpace=wrap;rounded=0;" vertex="1" parent="1">
          <mxGeometry x="531.35" y="240" width="170" height="30" as="geometry" />
        </mxCell>
        <mxCell id="heVDlDfBvZri-jR2nNdC-23" value="" style="endArrow=none;html=1;rounded=0;" edge="1" parent="1">
          <mxGeometry width="50" height="50" relative="1" as="geometry">
            <mxPoint x="491.35" y="270" as="sourcePoint" />
            <mxPoint x="721.35" y="270" as="targetPoint" />
          </mxGeometry>
        </mxCell>
        <mxCell id="heVDlDfBvZri-jR2nNdC-24" value="" style="endArrow=none;html=1;rounded=0;" edge="1" parent="1">
          <mxGeometry width="50" height="50" relative="1" as="geometry">
            <mxPoint x="491.35" y="310" as="sourcePoint" />
            <mxPoint x="721.35" y="310" as="targetPoint" />
          </mxGeometry>
        </mxCell>
        <mxCell id="heVDlDfBvZri-jR2nNdC-25" value="&lt;b&gt;NapiCiklus(nöény&lt;sup&gt;m&lt;/sup&gt;)&lt;/b&gt;" style="text;html=1;align=center;verticalAlign=middle;whiteSpace=wrap;rounded=0;" vertex="1" parent="1">
          <mxGeometry x="511.35" y="280" width="170" height="30" as="geometry" />
        </mxCell>
        <mxCell id="heVDlDfBvZri-jR2nNdC-26" value="&lt;b&gt;j := j + 1&lt;/b&gt;" style="text;html=1;align=center;verticalAlign=middle;whiteSpace=wrap;rounded=0;" vertex="1" parent="1">
          <mxGeometry x="511.35" y="310" width="170" height="30" as="geometry" />
        </mxCell>
      </root>
    </mxGraphModel>
  </diagram>
</mxfile>
